<svg width="375" height="220" viewBox="0 0 375 220" fill="none" xmlns="http://www.w3.org/2000/svg">
<rect width="375" height="220" fill="#421075"/>
<g filter="url(#filter0_f_1_5584)">
<path d="M239.967 35.3262L239.633 46.6072L248.956 52.9673L237.675 52.6327L231.315 61.9558L231.649 50.6749L222.326 44.3148L233.607 44.6493L239.967 35.3262Z" fill="white"/>
</g>
<path d="M132 168C132 161.373 137.373 156 144 156H232C238.628 156 244 161.373 244 168V177C244 183.627 238.628 189 232 189H144C137.373 189 132 183.627 132 177V168Z" fill="white"/>
<path d="M157.294 172.608C157.294 175.272 155.542 177.144 153.022 177.144C150.514 177.144 148.786 175.284 148.786 172.608C148.786 169.944 150.526 168.072 153.034 168.072C155.542 168.072 157.294 169.932 157.294 172.608ZM155.674 172.608C155.674 170.736 154.642 169.548 153.034 169.548C151.426 169.548 150.394 170.736 150.394 172.608C150.394 174.48 151.426 175.668 153.034 175.668C154.642 175.668 155.674 174.456 155.674 172.608ZM160.76 177H159.224V168.228H162.572C164.564 168.228 165.728 169.236 165.728 170.964C165.728 172.14 165.176 172.98 164.144 173.4L165.812 177H164.132L162.644 173.724H160.76V177ZM160.76 169.596V172.368H162.572C163.544 172.368 164.12 171.852 164.12 170.964C164.12 170.088 163.544 169.596 162.572 169.596H160.76ZM170.919 177H167.763V168.228H170.835C173.427 168.228 175.215 170.016 175.215 172.632C175.215 175.212 173.463 177 170.919 177ZM170.691 169.644H169.299V175.584H170.775C172.527 175.584 173.595 174.456 173.595 172.632C173.595 170.772 172.503 169.644 170.691 169.644ZM182.594 177H177.146V168.228H182.594V169.644H178.682V171.9H182.186V173.256H178.682V175.584H182.594V177ZM186.295 177H184.759V168.228H188.107C190.099 168.228 191.263 169.236 191.263 170.964C191.263 172.14 190.711 172.98 189.679 173.4L191.347 177H189.667L188.179 173.724H186.295V177ZM186.295 169.596V172.368H188.107C189.079 172.368 189.655 171.852 189.655 170.964C189.655 170.088 189.079 169.596 188.107 169.596H186.295ZM198.545 177H197.033V168.228H198.557L202.673 174.444V168.228H204.185V177H202.673L198.545 170.784V177ZM214.63 172.608C214.63 175.272 212.878 177.144 210.358 177.144C207.85 177.144 206.122 175.284 206.122 172.608C206.122 169.944 207.862 168.072 210.37 168.072C212.878 168.072 214.63 169.932 214.63 172.608ZM213.01 172.608C213.01 170.736 211.978 169.548 210.37 169.548C208.762 169.548 207.73 170.736 207.73 172.608C207.73 174.48 208.762 175.668 210.37 175.668C211.978 175.668 213.01 174.456 213.01 172.608ZM218.056 177L215.44 168.228H217.036L218.428 172.86C218.56 173.34 218.692 173.832 218.824 174.6C218.968 173.82 219.1 173.364 219.256 172.86L220.636 168.228H222.328L223.684 172.86C223.828 173.352 223.96 173.856 224.104 174.6C224.272 173.784 224.392 173.316 224.524 172.872L225.94 168.228H227.5L224.836 177H223.348L221.476 170.616L219.568 177H218.056Z" fill="#3D3D3D"/>
<path d="M80.0629 82.364L69.3169 120.866H71.6389C80.0089 120.866 83.8429 109.634 86.0029 101.48C88.7029 91.274 88.5409 82.364 82.3309 82.364H80.0629ZM71.4229 122H59.0029L59.2189 121.136C59.9749 121.136 61.5409 120.92 61.9729 120.434C63.3229 118.76 65.1589 112.118 65.6989 109.904C67.5889 103.37 72.7729 85.28 72.2329 83.12C72.0169 82.202 70.8829 82.202 70.0189 82.256L70.1809 81.392H82.7089C93.8869 81.392 95.4529 92.516 93.2929 101.48C90.4309 113.144 84.3289 122 71.4229 122ZM109.187 97.376C109.457 95.918 109.457 92.948 107.945 92.948C105.515 92.948 102.653 100.724 101.357 104.882L103.085 104.45C107.783 103.316 108.593 100.994 109.187 97.376ZM100.925 106.34C100.871 106.448 100.871 106.556 100.817 106.664C98.927 113.738 100.169 118.652 104.327 118.652C108.485 118.652 111.077 114.818 112.589 111.47L113.615 111.632C112.211 116.06 108.053 122.864 100.493 122.486C94.229 122.162 91.637 116.276 94.175 106.664C96.551 97.754 102.221 91.598 108.323 91.598C116.369 91.598 118.637 100.832 110.753 103.532C106.973 104.828 104.219 105.584 100.925 106.34ZM126.582 116.384C125.286 121.136 122.1 122.27 120.426 122.27C118.806 122.27 114.864 122 116.268 114.926C117.186 110.228 124.692 86.576 124.206 83.768C124.098 83.444 123.828 83.336 123.45 83.336C122.856 83.336 121.992 83.66 121.506 83.498L121.83 82.742C123.99 82.526 129.39 81.392 131.82 81.392L124.098 110.552C122.91 114.44 121.992 117.68 122.154 119.138C122.208 120.002 122.856 120.002 123.018 120.002C124.098 119.948 125.394 117.248 125.988 115.628L126.582 116.384ZM139.368 116.384C137.802 121.406 134.832 122.324 133.104 122.324C129.702 122.27 128.19 120.002 129.216 115.466C129.702 113.198 130.08 112.496 130.782 109.904C131.646 106.826 133.86 100.4 134.292 97.268C134.562 96.026 134.508 94.838 134.13 94.838C132.996 94.838 131.16 98.996 130.728 99.968L129.702 99.644C131.808 93.704 135.156 91.598 137.046 91.598C141.528 91.598 141.528 95.594 140.232 99.644L136.992 109.904C135.48 114.71 134.886 117.626 134.832 118.382C134.67 119.786 135.318 120.11 135.696 120.11C136.668 120.11 138.504 116.276 138.612 115.736L139.368 116.384ZM138.396 89.222C136.344 89.222 135.318 87.548 135.858 85.55C136.344 83.606 138.234 81.932 140.34 81.932C142.338 81.932 143.526 83.606 143.04 85.55C142.5 87.548 140.394 89.222 138.396 89.222ZM147.59 121.838C146.888 122 146.186 122.108 145.646 122.108C143 122.108 141.812 120.434 142.568 116.924C143.324 113.306 148.562 97.43 147.482 94.892C147.266 94.406 145.214 96.512 144.026 99.968L142.892 99.644C144.08 95.594 147.536 91.49 150.614 91.49C151.586 91.49 152.558 91.922 153.368 92.84C156.068 95.81 151.208 107.69 149.318 116.006C148.994 117.626 148.832 118.976 149.804 118.976C150.344 118.976 151.208 118.544 152.558 117.518C156.932 114.116 162.116 107.582 162.116 100.67C162.116 98.078 159.524 96.62 159.524 94.838C159.578 93.002 161.36 91.868 163.034 91.868C164.6 91.868 165.842 92.84 166.22 94.298C167.57 99.212 159.254 119.192 147.59 121.838ZM181.064 97.376C181.334 95.918 181.334 92.948 179.822 92.948C177.392 92.948 174.53 100.724 173.234 104.882L174.962 104.45C179.66 103.316 180.47 100.994 181.064 97.376ZM172.802 106.34C172.748 106.448 172.748 106.556 172.694 106.664C170.804 113.738 172.046 118.652 176.204 118.652C180.362 118.652 182.954 114.818 184.466 111.47L185.492 111.632C184.088 116.06 179.93 122.864 172.37 122.486C166.106 122.162 163.514 116.276 166.052 106.664C168.428 97.754 174.098 91.598 180.2 91.598C188.246 91.598 190.514 100.832 182.63 103.532C178.85 104.828 176.096 105.584 172.802 106.34ZM194.388 117.572C194.118 118.922 193.956 120.11 194.118 120.65C194.226 121.136 195.09 121.352 195.738 121.352L195.63 122H184.29L184.452 121.352C185.154 121.352 186.072 121.136 186.504 120.65C187.8 118.976 189.474 112.118 190.068 109.904C191.85 103.37 193.74 96.998 193.2 95.27C193.146 95.162 193.038 95.108 192.93 95.108C192.12 95.108 190.284 98.078 189.528 100.076L188.34 99.806C189.096 97.862 191.742 91.49 195.738 91.544C198.87 91.598 200.274 94.514 198.978 99.536L197.304 105.854C199.842 99.806 203.514 91.922 208.158 91.922C208.266 91.922 208.32 91.922 208.428 91.922C210.696 92.084 213.234 94.244 212.532 98.132C212.208 99.752 210.804 101.858 208.86 101.858C208.428 101.858 207.996 101.75 207.51 101.534C204.432 99.32 207.78 95.108 206.376 94.622C203.73 93.758 197.142 107.42 194.388 117.572ZM208.233 132.53C204.561 132.422 203.535 126.644 206.451 126.05C208.017 126.104 209.043 127.292 210.123 127.616C211.041 127.886 211.851 128.21 212.661 128.21C213.957 128.21 215.415 127.292 217.953 123.728C219.357 118.598 218.655 96.512 215.415 96.512C214.821 96.512 214.173 97.16 213.471 98.672L212.661 97.754C214.011 95.216 216.441 91.814 218.979 91.814C219.789 91.814 220.599 92.192 221.409 93.11C224.055 96.296 225.027 112.064 224.271 116.978C228.159 111.794 235.017 102.668 232.317 97.916C232.317 97.916 229.995 96.89 230.103 95.27C230.265 92.948 232.425 92.138 233.559 92.138C234.369 92.138 236.367 92.354 236.907 95.054C238.473 103.046 215.847 132.746 208.233 132.53ZM255.912 101.48L250.674 119.57C250.404 120.326 250.242 121.136 251.052 121.136H253.914C256.506 121.136 260.556 116.924 262.23 110.768C263.958 104.612 262.176 101.534 257.802 101.48H255.912ZM261.15 83.336L256.29 100.13L257.316 100.076C262.176 99.752 265.254 94.082 266.28 90.572C267.36 86.954 266.982 82.094 262.554 82.418H261.906C261.258 82.418 261.366 82.688 261.15 83.336ZM254.238 122.108L240.36 122L240.414 121.136C241.116 121.136 242.412 121.082 243.006 120.326C244.356 118.652 246.3 112.118 246.84 109.904C248.73 103.37 254.13 85.334 253.644 83.174C253.428 82.256 252.024 82.202 251.16 82.256L251.322 81.392H262.716C272.112 81.5 274.272 85.442 272.814 90.734C271.68 94.838 268.44 99.482 261.258 100.562C268.494 100.562 270.924 104.666 269.304 110.768C267.414 117.95 261.528 122.162 254.238 122.108ZM288.341 106.934C290.393 99.05 291.581 92.354 287.747 92.354C283.859 92.354 281.483 99.158 279.431 106.934C277.325 114.872 275.975 121.622 279.809 121.622C283.643 121.622 286.235 114.764 288.341 106.934ZM287.963 91.382C294.227 91.382 297.899 96.512 295.145 106.934C292.391 117.248 285.857 122.648 279.593 122.648C273.275 122.648 269.873 117.248 272.627 106.934C275.381 96.62 281.645 91.382 287.963 91.382ZM304.795 107.204C304.363 104.288 303.013 97.214 300.907 97.214C300.259 97.214 299.557 97.862 298.801 99.428L297.937 98.564C299.503 95.27 302.797 92.084 305.335 92.084C309.115 92.084 310.249 100.346 310.627 102.992C313.111 100.616 314.839 99.266 314.623 96.944C312.895 95.108 314.623 92.246 317.485 92.246C317.593 92.246 317.755 92.246 317.917 92.246C319.051 92.408 320.509 93.434 320.455 94.73C320.293 98.51 316.135 100.292 310.897 104.936C311.221 107.69 312.571 117.032 315.271 117.032C315.865 117.032 316.513 116.492 317.161 115.304L318.133 115.682C316.351 119.516 313.435 122.216 311.005 122.216C310.249 122.216 309.547 121.946 308.953 121.352C306.901 119.354 305.713 113.738 305.011 108.986C301.231 113.09 298.315 114.548 298.585 117.518C300.313 119.408 298.639 122.216 295.777 122.216C295.615 122.216 295.453 122.216 295.291 122.216C294.157 122.054 292.699 121.028 292.753 119.732C292.915 115.412 298.423 113.684 304.795 107.204Z" fill="white"/>
<path d="M146.2 56.928C146.2 60.192 146.368 63.48 146.584 64.776C146.632 65.136 146.896 65.328 147.328 65.328C149.2 65.28 151.312 65.232 151.768 65.016C152.2 64.776 152.992 62.064 153.136 61.632L153.592 61.8C153.568 62.808 153.232 64.872 153.232 66.024L146.32 66H142.72V65.592C143.008 65.592 143.464 65.544 143.632 65.28C144.136 64.536 144.04 60.264 144.04 56.952C144.04 53.664 144.136 49.44 143.632 48.672C143.464 48.408 143.008 48.384 142.72 48.36V47.952H152.848C152.848 49.104 152.92 50.664 152.944 51.672L152.512 51.84C152.344 51.408 151.816 49.152 151.384 48.888C150.808 48.648 147.952 48.624 147.232 48.624C146.872 48.624 146.632 48.816 146.584 49.152C146.368 50.352 146.224 53.232 146.224 56.256C147.952 56.208 149.2 56.184 149.704 55.992C150.424 55.728 150.544 53.376 150.688 52.944L151.144 52.992C151.096 55.008 151.096 58.176 151.144 60.192L150.688 60.216C150.544 59.784 150.424 57.432 149.704 57.168C149.2 56.976 147.952 56.952 146.2 56.928ZM160.833 58.368C161.865 60.336 162.897 62.28 164.001 64.2C164.649 65.352 164.985 65.568 165.969 65.592V66H160.041V65.592C161.361 65.544 161.793 65.088 160.929 63.48C160.377 62.448 159.825 61.416 159.273 60.36C158.457 61.632 157.353 63.24 156.993 64.152C156.441 65.496 157.305 65.592 157.929 65.592V66H153.537V65.592C154.281 65.52 154.689 65.592 155.361 64.776C156.321 63.504 157.689 61.344 158.865 59.544C158.025 57.96 157.161 56.376 156.249 54.84C155.553 53.712 154.977 53.472 153.993 53.448V53.04H159.657V53.448C158.961 53.496 158.529 53.976 158.865 54.624C159.393 55.608 159.897 56.592 160.425 57.6C161.313 56.112 162.009 54.936 162.201 54.408C162.465 53.76 162.105 53.448 161.145 53.448V53.04H165.297V53.448C164.577 53.496 164.145 53.592 163.473 54.408C162.849 55.224 161.913 56.664 160.833 58.368ZM175.359 55.104C175.743 56.136 174.735 56.952 173.967 56.952C173.775 56.952 173.607 56.904 173.487 56.808C172.839 55.728 172.887 53.136 171.207 53.136C168.999 53.136 168.735 57.744 168.735 59.28C168.735 61.872 169.791 65.304 171.999 65.304C173.679 65.304 175.143 63.504 175.335 61.92L175.935 61.992C175.671 64.392 173.703 66.408 171.231 66.408C167.943 66.408 166.215 62.88 166.215 59.28C166.215 56.16 167.655 52.536 171.279 52.536C173.247 52.536 174.687 53.472 175.359 55.104ZM176.179 49.008L176.347 48.552C177.355 48.456 178.987 47.952 180.139 47.952L180.091 60.624C180.091 61.608 180.043 64.56 180.427 65.28C180.547 65.52 181.003 65.592 181.339 65.616L181.315 66H176.683V65.616C176.995 65.592 177.451 65.52 177.571 65.28C177.979 64.56 177.931 61.608 177.931 60.624C177.931 57.72 177.979 50.088 177.523 49.128C177.427 48.984 177.307 48.936 177.139 48.936C176.851 48.936 176.467 49.104 176.179 49.008ZM190.829 66.216V63.456C190.229 64.968 188.933 65.976 187.277 66C185.573 66 184.349 65.016 184.133 62.784C183.941 60.792 184.349 55.632 183.629 54.096C183.533 53.952 183.389 53.904 183.245 53.904C182.933 53.904 182.573 54.048 182.285 53.976L182.453 53.496C183.461 53.4 185.093 52.896 186.245 52.896C186.221 54.6 186.221 56.304 186.221 58.008C186.221 59.064 186.245 61.368 186.269 62.04C186.341 64.296 187.133 64.824 188.021 64.824C188.765 64.824 190.253 64.296 190.829 61.824C190.853 60.72 191.069 55.488 190.421 54.096C190.325 53.952 190.181 53.904 190.037 53.904C189.725 53.904 189.365 54.048 189.077 53.976L189.245 53.496C190.253 53.4 191.909 52.896 193.061 52.896C193.061 54.216 192.797 63.696 193.397 64.968C193.493 65.112 193.613 65.16 193.781 65.16C194.069 65.16 194.453 64.992 194.741 65.088L194.573 65.544C193.565 65.64 191.981 66.216 190.829 66.216ZM202.75 55.92C202.342 54.456 202.006 53.016 200.446 52.944C199.198 52.872 198.142 53.808 198.166 55.224C198.214 58.68 204.766 57.792 204.766 62.592C204.766 65.112 202.606 66.528 200.278 66.528C198.622 66.528 197.302 65.832 196.486 65.4C196.03 64.92 195.718 63.384 196.174 62.352C196.318 62.16 196.534 62.04 196.798 62.04C197.062 62.04 197.35 62.184 197.494 62.472C197.878 63.912 198.19 65.904 200.374 65.976C201.982 66.024 202.822 64.968 202.822 63.576C202.846 59.832 196.198 60.744 196.222 56.112C196.222 53.52 198.31 52.32 200.662 52.392C202.15 52.44 203.038 52.968 203.878 53.28C204.478 54.168 204.286 55.68 204.022 56.088C203.902 56.232 203.662 56.352 203.398 56.352C203.158 56.352 202.918 56.232 202.75 55.92ZM205.898 53.976L206.066 53.496C207.074 53.4 208.706 52.896 209.858 52.896L209.81 60.624C209.81 61.608 209.762 64.56 210.146 65.28C210.266 65.52 210.722 65.592 211.058 65.616L211.034 66H206.402V65.616C206.714 65.592 207.17 65.52 207.29 65.28C207.698 64.56 207.65 61.608 207.65 60.624C207.65 57.72 207.698 55.056 207.242 54.096C207.146 53.952 207.002 53.904 206.858 53.904C206.546 53.904 206.186 54.048 205.898 53.976ZM206.906 49.992C206.906 49.272 207.482 48.672 208.322 48.672C209.138 48.672 209.786 49.272 209.786 49.992C209.786 50.736 209.138 51.36 208.322 51.36C207.482 51.36 206.906 50.736 206.906 49.992ZM217.261 66H217.237C217.237 65.976 217.237 65.952 217.237 65.928C215.677 61.272 214.213 56.808 213.397 54.888C212.917 53.76 212.461 53.472 211.477 53.424L211.501 53.04H216.853V53.424C216.133 53.472 215.605 53.808 215.821 54.456L218.389 62.04C219.469 58.968 220.861 55.536 220.861 54.264C220.861 53.712 220.453 53.424 219.757 53.424V53.04H223.837V53.448C223.285 53.496 222.757 53.544 222.373 54.288C221.293 56.376 218.893 63.264 218.005 66H217.285V66.024L217.261 66ZM231.004 56.04C230.884 54.72 230.38 53.16 228.748 53.16C226.924 53.16 226.42 55.392 226.252 56.832H230.212C230.716 56.832 231.028 56.496 231.004 56.04ZM232.828 57.504H226.18C226.132 58.128 226.108 58.728 226.108 59.184C226.108 62.424 227.116 65.208 229.276 65.208C231.004 65.208 232.444 63.528 232.684 61.896L233.236 61.992C232.924 64.368 231.052 66.432 228.58 66.432C225.508 66.432 223.708 63.336 223.708 59.184C223.708 55.224 225.628 52.488 228.604 52.488C231.076 52.488 233.02 53.928 233.284 56.88C233.308 57.168 233.116 57.504 232.828 57.504Z" fill="#CCCCCC"/>
<line x1="72.5" y1="55.5" x2="127.5" y2="55.5" stroke="#BEBEBE" stroke-opacity="0.2" stroke-linecap="round"/>
<line x1="248.5" y1="55.5" x2="303.5" y2="55.5" stroke="#BEBEBE" stroke-opacity="0.2" stroke-linecap="round"/>
<g opacity="0.8" filter="url(#filter1_f_1_5584)">
<path d="M341.829 159.708L341.542 169.378L349.533 174.829L339.864 174.542L334.412 182.534L334.699 172.864L326.708 167.413L336.377 167.699L341.829 159.708Z" fill="white"/>
</g>
<g opacity="0.8" filter="url(#filter2_f_1_5584)">
<path d="M42.8287 129.708L42.542 139.378L50.5332 144.829L40.8638 144.542L35.4123 152.534L35.699 142.864L27.7078 137.413L37.3772 137.699L42.8287 129.708Z" fill="white"/>
</g>
<g filter="url(#filter3_ii_1_5584)">
<path d="M238.967 36.3262L238.633 47.6072L247.956 53.9673L236.675 53.6327L230.315 62.9558L230.649 51.6749L221.326 45.3148L232.607 45.6493L238.967 36.3262Z" fill="white"/>
</g>
<g filter="url(#filter4_i_1_5584)">
<path d="M341.967 158.326L341.633 169.607L350.956 175.967L339.675 175.633L333.315 184.956L333.649 173.675L324.326 167.315L335.607 167.649L341.967 158.326Z" fill="white"/>
</g>
<g filter="url(#filter5_i_1_5584)">
<path d="M42.9673 127.326L42.6327 138.607L51.9558 144.967L40.6749 144.633L34.3148 153.956L34.6493 142.675L25.3262 136.315L36.6072 136.649L42.9673 127.326Z" fill="white"/>
</g>
<defs>
<filter id="filter0_f_1_5584" x="215.626" y="28.6262" width="40.0296" height="40.0296" filterUnits="userSpaceOnUse" color-interpolation-filters="sRGB">
<feFlood flood-opacity="0" result="BackgroundImageFix"/>
<feBlend mode="normal" in="SourceGraphic" in2="BackgroundImageFix" result="shape"/>
<feGaussianBlur stdDeviation="3.35" result="effect1_foregroundBlur_1_5584"/>
</filter>
<filter id="filter1_f_1_5584" x="320.965" y="153.965" width="34.3111" height="34.3111" filterUnits="userSpaceOnUse" color-interpolation-filters="sRGB">
<feFlood flood-opacity="0" result="BackgroundImageFix"/>
<feBlend mode="normal" in="SourceGraphic" in2="BackgroundImageFix" result="shape"/>
<feGaussianBlur stdDeviation="2.87143" result="effect1_foregroundBlur_1_5584"/>
</filter>
<filter id="filter2_f_1_5584" x="21.965" y="123.965" width="34.3111" height="34.3111" filterUnits="userSpaceOnUse" color-interpolation-filters="sRGB">
<feFlood flood-opacity="0" result="BackgroundImageFix"/>
<feBlend mode="normal" in="SourceGraphic" in2="BackgroundImageFix" result="shape"/>
<feGaussianBlur stdDeviation="2.87143" result="effect1_foregroundBlur_1_5584"/>
</filter>
<filter id="filter3_ii_1_5584" x="219.326" y="34.3262" width="28.6296" height="28.6296" filterUnits="userSpaceOnUse" color-interpolation-filters="sRGB">
<feFlood flood-opacity="0" result="BackgroundImageFix"/>
<feBlend mode="normal" in="SourceGraphic" in2="BackgroundImageFix" result="shape"/>
<feColorMatrix in="SourceAlpha" type="matrix" values="0 0 0 0 0 0 0 0 0 0 0 0 0 0 0 0 0 0 127 0" result="hardAlpha"/>
<feOffset dx="-2" dy="-2"/>
<feGaussianBlur stdDeviation="1.05"/>
<feComposite in2="hardAlpha" operator="arithmetic" k2="-1" k3="1"/>
<feColorMatrix type="matrix" values="0 0 0 0 0.347619 0 0 0 0 0.347619 0 0 0 0 0.347619 0 0 0 0.5 0"/>
<feBlend mode="normal" in2="shape" result="effect1_innerShadow_1_5584"/>
<feColorMatrix in="SourceAlpha" type="matrix" values="0 0 0 0 0 0 0 0 0 0 0 0 0 0 0 0 0 0 127 0" result="hardAlpha"/>
<feOffset dx="-1" dy="-1"/>
<feGaussianBlur stdDeviation="1"/>
<feComposite in2="hardAlpha" operator="arithmetic" k2="-1" k3="1"/>
<feColorMatrix type="matrix" values="0 0 0 0 0 0 0 0 0 0 0 0 0 0 0 0 0 0 0.25 0"/>
<feBlend mode="normal" in2="effect1_innerShadow_1_5584" result="effect2_innerShadow_1_5584"/>
</filter>
<filter id="filter4_i_1_5584" x="322.826" y="156.826" width="28.1296" height="28.1296" filterUnits="userSpaceOnUse" color-interpolation-filters="sRGB">
<feFlood flood-opacity="0" result="BackgroundImageFix"/>
<feBlend mode="normal" in="SourceGraphic" in2="BackgroundImageFix" result="shape"/>
<feColorMatrix in="SourceAlpha" type="matrix" values="0 0 0 0 0 0 0 0 0 0 0 0 0 0 0 0 0 0 127 0" result="hardAlpha"/>
<feOffset dx="-2" dy="-2"/>
<feGaussianBlur stdDeviation="0.75"/>
<feComposite in2="hardAlpha" operator="arithmetic" k2="-1" k3="1"/>
<feColorMatrix type="matrix" values="0 0 0 0 0.347619 0 0 0 0 0.347619 0 0 0 0 0.347619 0 0 0 0.5 0"/>
<feBlend mode="normal" in2="shape" result="effect1_innerShadow_1_5584"/>
</filter>
<filter id="filter5_i_1_5584" x="23.8262" y="125.826" width="28.1296" height="28.1296" filterUnits="userSpaceOnUse" color-interpolation-filters="sRGB">
<feFlood flood-opacity="0" result="BackgroundImageFix"/>
<feBlend mode="normal" in="SourceGraphic" in2="BackgroundImageFix" result="shape"/>
<feColorMatrix in="SourceAlpha" type="matrix" values="0 0 0 0 0 0 0 0 0 0 0 0 0 0 0 0 0 0 127 0" result="hardAlpha"/>
<feOffset dx="-2" dy="-2"/>
<feGaussianBlur stdDeviation="0.75"/>
<feComposite in2="hardAlpha" operator="arithmetic" k2="-1" k3="1"/>
<feColorMatrix type="matrix" values="0 0 0 0 0.347619 0 0 0 0 0.347619 0 0 0 0 0.347619 0 0 0 0.5 0"/>
<feBlend mode="normal" in2="shape" result="effect1_innerShadow_1_5584"/>
</filter>
</defs>
</svg>
